<?xml version="1.0" encoding="us-ascii" standalone="no"?><svg xmlns="http://www.w3.org/2000/svg" xmlns:xlink="http://www.w3.org/1999/xlink" contentStyleType="text/css" height="593px" preserveAspectRatio="none" style="width:491px;height:593px;background:#FFFFFF;" version="1.1" viewBox="0 0 491 593" width="491px" zoomAndPan="magnify"><defs/><g><text fill="#000000" font-family="sans-serif" font-size="14" font-weight="bold" lengthAdjust="spacing" textLength="228" x="130.5" y="30.1074">System Sequence Diagram (SSD)</text><rect fill="#FFFFFF" height="331.2012" style="stroke:#181818;stroke-width:1.0;" width="10" x="61" y="151.8633"/><rect fill="#FFFFFF" height="48.582" style="stroke:#181818;stroke-width:1.0;" width="10" x="448" y="175.1543"/><rect fill="#FFFFFF" height="31.291" style="stroke:#181818;stroke-width:1.0;" width="10" x="448" y="255.0273"/><rect fill="#FFFFFF" height="31.291" style="stroke:#181818;stroke-width:1.0;" width="10" x="448" y="317.6094"/><rect fill="#FFFFFF" height="31.291" style="stroke:#181818;stroke-width:1.0;" width="10" x="448" y="380.1914"/><rect fill="#FFFFFF" height="31.291" style="stroke:#181818;stroke-width:1.0;" width="10" x="448" y="442.7734"/><line style="stroke:#181818;stroke-width:0.5;stroke-dasharray:5.0,5.0;" x1="66" x2="66" y1="141.8633" y2="492.0645"/><line style="stroke:#181818;stroke-width:0.5;stroke-dasharray:5.0,5.0;" x1="453" x2="453" y1="141.8633" y2="492.0645"/><text fill="#000000" font-family="sans-serif" font-size="14" lengthAdjust="spacing" textLength="116" x="5" y="119.7285">Human Resources</text><text fill="#000000" font-family="sans-serif" font-size="14" lengthAdjust="spacing" textLength="56" x="35" y="138.3496">Manager</text><ellipse cx="66" cy="53.1211" fill="#E3E3E3" rx="8" ry="8" style="stroke:#181818;stroke-width:0.5;"/><path d="M66,61.1211 L66,88.1211 M53,69.1211 L79,69.1211 M66,88.1211 L53,103.1211 M66,88.1211 L79,103.1211 " fill="none" style="stroke:#181818;stroke-width:0.5;"/><text fill="#000000" font-family="sans-serif" font-size="14" lengthAdjust="spacing" textLength="116" x="5" y="506.1719">Human Resources</text><text fill="#000000" font-family="sans-serif" font-size="14" lengthAdjust="spacing" textLength="56" x="35" y="524.793">Manager</text><ellipse cx="66" cy="536.8066" fill="#E3E3E3" rx="8" ry="8" style="stroke:#181818;stroke-width:0.5;"/><path d="M66,544.8066 L66,571.8066 M53,552.8066 L79,552.8066 M66,571.8066 L53,586.8066 M66,571.8066 L79,586.8066 " fill="none" style="stroke:#181818;stroke-width:0.5;"/><rect fill="#E3E3E3" height="32.6211" rx="2.5" ry="2.5" style="stroke:#181818;stroke-width:0.5;" width="64" x="421" y="108.2422"/><text fill="#000000" font-family="sans-serif" font-size="14" lengthAdjust="spacing" textLength="50" x="428" y="130.3496">:System</text><rect fill="#E3E3E3" height="32.6211" rx="2.5" ry="2.5" style="stroke:#181818;stroke-width:0.5;" width="64" x="421" y="491.0645"/><text fill="#000000" font-family="sans-serif" font-size="14" lengthAdjust="spacing" textLength="50" x="428" y="513.1719">:System</text><rect fill="#FFFFFF" height="331.2012" style="stroke:#181818;stroke-width:1.0;" width="10" x="61" y="151.8633"/><rect fill="#FFFFFF" height="48.582" style="stroke:#181818;stroke-width:1.0;" width="10" x="448" y="175.1543"/><rect fill="#FFFFFF" height="31.291" style="stroke:#181818;stroke-width:1.0;" width="10" x="448" y="255.0273"/><rect fill="#FFFFFF" height="31.291" style="stroke:#181818;stroke-width:1.0;" width="10" x="448" y="317.6094"/><rect fill="#FFFFFF" height="31.291" style="stroke:#181818;stroke-width:1.0;" width="10" x="448" y="380.1914"/><rect fill="#FFFFFF" height="31.291" style="stroke:#181818;stroke-width:1.0;" width="10" x="448" y="442.7734"/><polygon fill="#181818" points="436,171.1543,446,175.1543,436,179.1543,440,175.1543" style="stroke:#181818;stroke-width:1.0;"/><line style="stroke:#181818;stroke-width:1.0;" x1="71" x2="442" y1="175.1543" y2="175.1543"/><text fill="#000000" font-family="sans-serif" font-size="13" font-weight="bold" lengthAdjust="spacing" textLength="7" x="78" y="169.8916">1</text><text fill="#000000" font-family="sans-serif" font-size="13" lengthAdjust="spacing" textLength="201" x="89" y="169.8916">Asks to register a new collaborator</text><polygon fill="#181818" points="82,219.7363,72,223.7363,82,227.7363,78,223.7363" style="stroke:#181818;stroke-width:1.0;"/><line style="stroke:#181818;stroke-width:1.0;stroke-dasharray:2.0,2.0;" x1="76" x2="452" y1="223.7363" y2="223.7363"/><text fill="#000000" font-family="sans-serif" font-size="13" font-weight="bold" lengthAdjust="spacing" textLength="7" x="88" y="209.8281">2</text><text fill="#000000" font-family="sans-serif" font-size="13" lengthAdjust="spacing" textLength="331" x="99" y="201.1826">requests data (name, birthdate, admission date, address,</text><text fill="#000000" font-family="sans-serif" font-size="13" lengthAdjust="spacing" textLength="297" x="103" y="218.4736">phone number, email, taxpayer number, ID number)</text><polygon fill="#181818" points="436,251.0273,446,255.0273,436,259.0273,440,255.0273" style="stroke:#181818;stroke-width:1.0;"/><line style="stroke:#181818;stroke-width:1.0;" x1="71" x2="442" y1="255.0273" y2="255.0273"/><text fill="#000000" font-family="sans-serif" font-size="13" font-weight="bold" lengthAdjust="spacing" textLength="7" x="78" y="249.7646">3</text><text fill="#000000" font-family="sans-serif" font-size="13" lengthAdjust="spacing" textLength="122" x="89" y="249.7646">types requested data</text><polygon fill="#181818" points="82,282.3184,72,286.3184,82,290.3184,78,286.3184" style="stroke:#181818;stroke-width:1.0;"/><line style="stroke:#181818;stroke-width:1.0;stroke-dasharray:2.0,2.0;" x1="76" x2="452" y1="286.3184" y2="286.3184"/><text fill="#000000" font-family="sans-serif" font-size="13" font-weight="bold" lengthAdjust="spacing" textLength="7" x="88" y="281.0557">4</text><text fill="#000000" font-family="sans-serif" font-size="13" lengthAdjust="spacing" textLength="342" x="99" y="281.0557">shows a list of all ID document type and asks to select one</text><polygon fill="#181818" points="436,313.6094,446,317.6094,436,321.6094,440,317.6094" style="stroke:#181818;stroke-width:1.0;"/><line style="stroke:#181818;stroke-width:1.0;" x1="71" x2="442" y1="317.6094" y2="317.6094"/><text fill="#000000" font-family="sans-serif" font-size="13" font-weight="bold" lengthAdjust="spacing" textLength="7" x="78" y="312.3467">5</text><text fill="#000000" font-family="sans-serif" font-size="13" lengthAdjust="spacing" textLength="163" x="89" y="312.3467">select the ID document type</text><polygon fill="#181818" points="82,344.9004,72,348.9004,82,352.9004,78,348.9004" style="stroke:#181818;stroke-width:1.0;"/><line style="stroke:#181818;stroke-width:1.0;stroke-dasharray:2.0,2.0;" x1="76" x2="452" y1="348.9004" y2="348.9004"/><text fill="#000000" font-family="sans-serif" font-size="13" font-weight="bold" lengthAdjust="spacing" textLength="7" x="88" y="343.6377">6</text><text fill="#000000" font-family="sans-serif" font-size="13" lengthAdjust="spacing" textLength="264" x="99" y="343.6377">shows a list of all jobs and asks to select one</text><polygon fill="#181818" points="436,376.1914,446,380.1914,436,384.1914,440,380.1914" style="stroke:#181818;stroke-width:1.0;"/><line style="stroke:#181818;stroke-width:1.0;" x1="71" x2="442" y1="380.1914" y2="380.1914"/><text fill="#000000" font-family="sans-serif" font-size="13" font-weight="bold" lengthAdjust="spacing" textLength="7" x="78" y="374.9287">7</text><text fill="#000000" font-family="sans-serif" font-size="13" lengthAdjust="spacing" textLength="78" x="89" y="374.9287">select the job</text><polygon fill="#181818" points="82,407.4824,72,411.4824,82,415.4824,78,411.4824" style="stroke:#181818;stroke-width:1.0;"/><line style="stroke:#181818;stroke-width:1.0;stroke-dasharray:2.0,2.0;" x1="76" x2="452" y1="411.4824" y2="411.4824"/><text fill="#000000" font-family="sans-serif" font-size="13" font-weight="bold" lengthAdjust="spacing" textLength="7" x="88" y="406.2197">8</text><text fill="#000000" font-family="sans-serif" font-size="13" lengthAdjust="spacing" textLength="236" x="99" y="406.2197">shows all data and requests confirmation</text><polygon fill="#181818" points="436,438.7734,446,442.7734,436,446.7734,440,442.7734" style="stroke:#181818;stroke-width:1.0;"/><line style="stroke:#181818;stroke-width:1.0;" x1="71" x2="442" y1="442.7734" y2="442.7734"/><text fill="#000000" font-family="sans-serif" font-size="13" font-weight="bold" lengthAdjust="spacing" textLength="7" x="78" y="437.5107">9</text><text fill="#000000" font-family="sans-serif" font-size="13" lengthAdjust="spacing" textLength="78" x="89" y="437.5107">confirms data</text><polygon fill="#181818" points="82,470.0645,72,474.0645,82,478.0645,78,474.0645" style="stroke:#181818;stroke-width:1.0;"/><line style="stroke:#181818;stroke-width:1.0;stroke-dasharray:2.0,2.0;" x1="76" x2="452" y1="474.0645" y2="474.0645"/><text fill="#000000" font-family="sans-serif" font-size="13" font-weight="bold" lengthAdjust="spacing" textLength="14" x="88" y="468.8018">10</text><text fill="#000000" font-family="sans-serif" font-size="13" lengthAdjust="spacing" textLength="158" x="106" y="468.8018">displays operation success</text><!--SRC=[hPEzRkCm3CTtFmMHgGNI5yXmm04Psg5BlNPX9CPM8uckI5_gjo_z5Hokrm8fgecco3z_f6WvXTnXmGI9CxksS2BGqbCbbviEtGaRgdM818MSOcxYtm7IekTpo0qSCGfLbGQrq7eGfGGrlVQK7S4-O3E6tzJr_hQgi5VEVJfGCTif5zZSzmapF95mNnp9Stx4R9NB1b3W_kcnideQNEWmAsnsSu7fSZOdeV07bQRe2koO0NU_LfWT_9QJWB8rqWHp5K38T0R7CUA12nh8b7THMgLXEOlIdOcEsZjJiWP51Jmgmat6H5iuXAAjESn4du98u0phjoyaidtEqBMS2UOfR84IXhW5nRSE1oDR_G_xnRoT83pzb-tVHdNeI5OuyXDTTMLhql9PR4BHHWLy18nnfF7i-aJs1cCDmEpj2UQf2aLR4B2klaBzmBgaQKiVv7-0-8KFyWtABo1DyNjSHZDjoKXpsHl7-HXAGhKTkGPeoPiNxqeU7wIBE0XmHsMg3D8x- -da4u9t]--></g></svg>